<?xml version="1.0" standalone="no"?>
<!DOCTYPE svg PUBLIC "-//W3C//DTD SVG 20010904//EN"
 "http://www.w3.org/TR/2001/REC-SVG-20010904/DTD/svg10.dtd">
<svg version="1.0" xmlns="http://www.w3.org/2000/svg"
 width="117.000000pt" height="117.000000pt" viewBox="0 0 117.000000 117.000000"
 preserveAspectRatio="xMidYMid meet">
<metadata>
Created by potrace 1.11, written by Peter Selinger 2001-2013
</metadata>
<g transform="translate(0.000000,117.000000) scale(0.100000,-0.100000)"
fill="#000000" stroke="none">
<path d="M396 1146 c17 -44 -87 -168 -230 -276 -80 -60 -86 -67 -86 -101 0
-38 27 -79 51 -79 8 0 97 36 199 79 102 43 186 78 188 76 1 -1 -21 -51 -49
-111 -127 -271 -269 -595 -269 -614 0 -29 17 -60 48 -88 l26 -23 10 23 c5 13
10 25 11 28 1 3 5 14 10 25 4 11 35 85 67 165 33 80 75 178 94 218 19 41 34
76 34 78 0 7 96 196 118 234 12 19 28 49 37 65 9 17 21 37 28 46 15 21 152 46
235 44 61 -2 62 -2 62 25 0 15 -11 40 -24 55 -34 40 -87 40 -201 3 -77 -25
-95 -27 -123 -17 -19 6 -34 9 -36 7 -1 -1 -7 -14 -13 -28 -8 -19 -30 -33 -94
-57 -46 -18 -84 -31 -86 -30 -1 2 12 24 28 50 54 82 55 134 2 190 -29 29 -46
35 -37 13z"/>
<path d="M707 842 c-24 -27 -109 -197 -171 -341 -67 -157 -107 -288 -107 -355
-1 -41 3 -52 26 -72 33 -29 40 -25 50 23 5 21 9 43 11 49 1 6 10 38 19 70 l17
59 20 -28 c27 -37 98 -103 144 -135 37 -25 101 -39 129 -28 22 8 5 26 -55 56
-24 12 -76 54 -115 92 l-70 69 85 43 c130 64 221 128 308 215 66 67 83 95 76
132 -10 48 -29 84 -57 102 -27 17 -43 12 -26 -9 43 -52 -85 -186 -334 -346
-54 -35 -58 -37 -52 -16 14 45 98 218 107 218 4 0 8 6 8 13 0 6 18 36 40 65
22 29 40 56 40 61 0 13 -40 60 -60 71 -13 7 -21 5 -33 -8z"/>
</g>
</svg>
